<svg width="218" height="83" viewBox="0 0 218 83" fill="none" xmlns="http://www.w3.org/2000/svg">
<path d="M5.96094 70.3516L2.71875 80H0.445312L4.69531 68.625H6.14844L5.96094 70.3516ZM8.67188 80L5.41406 70.3516L5.21875 68.625H6.67969L10.9531 80H8.67188ZM8.52344 75.7734V77.4688H2.42188V75.7734H8.52344ZM18.3125 68.625H20.4609V76.1797C20.4609 77.0495 20.2734 77.7812 19.8984 78.375C19.5234 78.9635 19.013 79.4089 18.3672 79.7109C17.7214 80.0078 16.987 80.1562 16.1641 80.1562C15.3307 80.1562 14.5885 80.0078 13.9375 79.7109C13.2865 79.4089 12.776 78.9635 12.4062 78.375C12.0365 77.7812 11.8516 77.0495 11.8516 76.1797V68.625H14V76.1797C14 76.7109 14.0885 77.1458 14.2656 77.4844C14.4427 77.8177 14.6927 78.0651 15.0156 78.2266C15.3385 78.388 15.7214 78.4688 16.1641 78.4688C16.612 78.4688 16.9948 78.388 17.3125 78.2266C17.6354 78.0651 17.8828 77.8177 18.0547 77.4844C18.2266 77.1458 18.3125 76.7109 18.3125 76.1797V68.625ZM27.3828 68.625V80H25.2422V68.625H27.3828ZM30.9141 68.625V70.3203H21.75V68.625H30.9141ZM41.3359 74.0234V74.6094C41.3359 75.4688 41.2214 76.2422 40.9922 76.9297C40.763 77.612 40.4375 78.1927 40.0156 78.6719C39.5938 79.151 39.0911 79.5182 38.5078 79.7734C37.9245 80.0286 37.276 80.1562 36.5625 80.1562C35.8594 80.1562 35.2135 80.0286 34.625 79.7734C34.0417 79.5182 33.5365 79.151 33.1094 78.6719C32.6823 78.1927 32.3516 77.612 32.1172 76.9297C31.8828 76.2422 31.7656 75.4688 31.7656 74.6094V74.0234C31.7656 73.1589 31.8828 72.3854 32.1172 71.7031C32.3516 71.0208 32.6797 70.4401 33.1016 69.9609C33.5234 69.4766 34.026 69.1068 34.6094 68.8516C35.1979 68.5964 35.8438 68.4688 36.5469 68.4688C37.2604 68.4688 37.9089 68.5964 38.4922 68.8516C39.0755 69.1068 39.5781 69.4766 40 69.9609C40.4271 70.4401 40.7552 71.0208 40.9844 71.7031C41.2188 72.3854 41.3359 73.1589 41.3359 74.0234ZM39.1641 74.6094V74.0078C39.1641 73.388 39.1068 72.8438 38.9922 72.375C38.8776 71.901 38.7083 71.5026 38.4844 71.1797C38.2604 70.8568 37.9844 70.6146 37.6562 70.4531C37.3281 70.2865 36.9583 70.2031 36.5469 70.2031C36.1302 70.2031 35.7604 70.2865 35.4375 70.4531C35.1198 70.6146 34.849 70.8568 34.625 71.1797C34.401 71.5026 34.2292 71.901 34.1094 72.375C33.9948 72.8438 33.9375 73.388 33.9375 74.0078V74.6094C33.9375 75.224 33.9948 75.7682 34.1094 76.2422C34.2292 76.7161 34.401 77.1172 34.625 77.4453C34.8542 77.7682 35.1302 78.013 35.4531 78.1797C35.776 78.3464 36.1458 78.4297 36.5625 78.4297C36.9792 78.4297 37.349 78.3464 37.6719 78.1797C37.9948 78.013 38.2656 77.7682 38.4844 77.4453C38.7083 77.1172 38.8776 76.7161 38.9922 76.2422C39.1068 75.7682 39.1641 75.224 39.1641 74.6094ZM45.9531 77.8203L48.2188 68.625H49.4453L49.5234 70.5625L47.1016 80H45.8047L45.9531 77.8203ZM44.5234 68.625L46.3828 77.7891V80H44.9688L42.3906 68.625H44.5234ZM51.875 77.75L53.7031 68.625H55.8438L53.2656 80H51.8516L51.875 77.75ZM50.0312 68.625L52.2969 77.8516L52.4297 80H51.1328L48.7188 70.5547L48.8125 68.625H50.0312ZM61.5781 75.8516H58.6484V74.1641H61.5781C62.0573 74.1641 62.4453 74.0859 62.7422 73.9297C63.0443 73.7682 63.2656 73.5495 63.4062 73.2734C63.5469 72.9922 63.6172 72.6719 63.6172 72.3125C63.6172 71.9635 63.5469 71.638 63.4062 71.3359C63.2656 71.0339 63.0443 70.7891 62.7422 70.6016C62.4453 70.4141 62.0573 70.3203 61.5781 70.3203H59.3516V80H57.2031V68.625H61.5781C62.4635 68.625 63.2188 68.7839 63.8438 69.1016C64.474 69.4141 64.9531 69.849 65.2812 70.4062C65.6146 70.9583 65.7812 71.5885 65.7812 72.2969C65.7812 73.0312 65.6146 73.6641 65.2812 74.1953C64.9531 74.7266 64.474 75.1354 63.8438 75.4219C63.2188 75.7083 62.4635 75.8516 61.5781 75.8516ZM71.8438 75.8516H68.9141V74.1641H71.8438C72.3229 74.1641 72.7109 74.0859 73.0078 73.9297C73.3099 73.7682 73.5312 73.5495 73.6719 73.2734C73.8125 72.9922 73.8828 72.6719 73.8828 72.3125C73.8828 71.9635 73.8125 71.638 73.6719 71.3359C73.5312 71.0339 73.3099 70.7891 73.0078 70.6016C72.7109 70.4141 72.3229 70.3203 71.8438 70.3203H69.6172V80H67.4688V68.625H71.8438C72.7292 68.625 73.4844 68.7839 74.1094 69.1016C74.7396 69.4141 75.2188 69.849 75.5469 70.4062C75.8802 70.9583 76.0469 71.5885 76.0469 72.2969C76.0469 73.0312 75.8802 73.6641 75.5469 74.1953C75.2188 74.7266 74.7396 75.1354 74.1094 75.4219C73.4844 75.7083 72.7292 75.8516 71.8438 75.8516Z" fill="#58595B"/>
<path fill-rule="evenodd" clip-rule="evenodd" d="M169.271 40.6339C169.271 41.3556 169.271 42.1418 169.14 42.8659C168.746 45.3533 166.578 47.4513 163.689 47.4513C159.942 47.4513 157.249 44.7655 157.249 40.1107C157.249 36.046 159.285 32.5716 163.751 32.5716C166.578 32.5716 168.746 34.6052 169.205 37.1595C169.271 37.6208 169.271 38.1441 169.271 38.6053V40.6339ZM169.271 9.49818V26.5429H169.14C167.431 24.2464 164.016 23.3983 160.272 23.3983C151.994 23.3983 144.504 29.8189 144.569 40.5695C144.569 51.3176 151.929 57.2198 159.483 57.2198C163.491 57.2198 167.826 55.841 170.259 51.7788H170.39L170.849 56.4312H181.949C181.82 54.7275 181.689 50.4669 181.689 46.2709V9.49818H169.271Z" fill="#FE5000"/>
<path fill-rule="evenodd" clip-rule="evenodd" d="M205.518 43.6496C205.518 44.2373 205.518 44.8945 205.387 45.4202C204.864 47.3199 202.892 48.7607 200.985 48.7607C198.689 48.7607 197.436 47.7142 197.436 45.879C197.436 43.2553 200.063 41.8789 205.518 41.8789V43.6496ZM217.477 37.6208C217.477 28.9658 212.743 23.3958 201.645 23.3958C194.416 23.3958 189.617 25.2955 187.516 26.4114L189.686 34.1439C191.789 32.9659 195.857 31.5871 199.475 31.5871C204.335 31.5871 205.124 33.0304 205.124 34.2109V34.4093C192.905 34.4093 185.153 38.4045 185.153 47.057C185.153 52.3021 189.357 57.2198 196.452 57.2198C200.132 57.2198 203.549 56.3023 205.913 53.6785H206.176L206.83 56.4312H218C217.675 54.9904 217.477 51.8408 217.477 48.4359V37.6208Z" fill="#FE5000"/>
<path fill-rule="evenodd" clip-rule="evenodd" d="M0.265355 34.7614C0.265355 30.171 0.133917 26.4337 0 23.5495H10.3166L10.7779 27.6786H11.0383C12.0253 26.3047 14.8499 22.7634 21.1565 22.7634C25.36 22.7634 28.9088 24.73 30.4191 28.2069H30.548C31.9963 26.3692 33.5736 25.0573 35.3467 24.1397C37.1199 23.2222 39.1559 22.7634 41.4573 22.7634C48.6194 22.7634 53.2172 27.7431 53.2172 37.1843V55.8013H41.2614V39.0194C41.2614 34.8259 39.8156 32.5964 36.9909 32.5964C34.8879 32.5964 33.5736 33.9727 33.0478 35.5475C32.7849 36.3312 32.7205 37.3802 32.7205 38.0349V55.8013H20.7621V39.0194C20.7621 34.8259 19.3188 32.5964 16.4917 32.5964C13.9944 32.5964 12.9429 34.496 12.5485 35.4806C12.2212 36.3312 12.2212 37.1843 12.2212 37.906V55.8013H0.265355V34.7614Z" fill="#FE5000"/>
<path fill-rule="evenodd" clip-rule="evenodd" d="M74.3837 47.9993C70.3761 47.9993 68.5359 44.262 68.5359 39.6765C68.5359 35.4805 70.1132 31.3489 74.4481 31.3489C78.3913 31.3489 80.0999 35.1531 80.0999 39.6765C80.0999 45.0481 77.9969 47.9993 74.4481 47.9993H74.3837ZM74.2522 56.5848C84.6333 56.5848 93.1048 50.2957 93.1048 39.2822C93.1048 29.5807 85.6848 22.7633 74.9764 22.7633C62.5568 22.7633 55.66 30.1039 55.66 39.9345C55.66 50.5561 64.134 56.5848 74.1877 56.5848H74.2522Z" fill="#FE5000"/>
<path fill-rule="evenodd" clip-rule="evenodd" d="M104.87 23.5495L108.942 37.5116C109.666 39.937 110.125 42.2979 110.519 44.5274H110.782C111.176 42.1665 111.57 40.004 112.225 37.5116L115.905 23.5495H129.176L116.434 55.8037H103.687L91.334 23.5495H104.87Z" fill="#FE5000"/>
<path fill-rule="evenodd" clip-rule="evenodd" d="M147.178 62.1946C142.54 56.1658 139.78 48.6218 139.78 40.438C139.78 31.3961 141.677 23.1651 147.222 16.8685L138.371 12.1194C132.196 19.904 129.848 29.742 129.848 40.438C129.848 50.3429 133.007 59.5113 138.374 66.9933L147.178 62.1946Z" fill="#FE5000"/>
<path fill-rule="evenodd" clip-rule="evenodd" d="M153.64 6.37837C153.64 9.90486 150.776 12.7593 147.247 12.7593C143.713 12.7593 140.854 9.90486 140.854 6.37837C140.854 2.85684 143.713 -6.38962e-05 147.247 -6.38962e-05C150.776 -6.38962e-05 153.64 2.85684 153.64 6.37837Z" fill="#FE5000"/>
</svg>
