<svg width="151" height="57" viewBox="0 0 151 57" fill="none" xmlns="http://www.w3.org/2000/svg">
<g clip-path="url(#clip0_14_1221)">
<path d="M4.12893 48.3138L1.88319 54.9398H0.308472L3.25228 47.128H4.2588L4.12893 48.3138ZM6.00669 54.9398L3.75013 48.3138L3.61484 47.128H4.62678L7.5868 54.9398H6.00669ZM5.90387 52.0372V53.2015H1.67756V52.0372H5.90387ZM12.6844 47.128H14.1725V52.3162C14.1725 52.9135 14.0426 53.416 13.7829 53.8238C13.5231 54.228 13.1696 54.5338 12.7223 54.7412C12.2749 54.9451 11.7662 55.047 11.1963 55.047C10.619 55.047 10.1049 54.9451 9.65398 54.7412C9.20306 54.5338 8.84945 54.228 8.59331 53.8238C8.33723 53.416 8.20916 52.9135 8.20916 52.3162V47.128H9.69727V52.3162C9.69727 52.681 9.75857 52.9797 9.88124 53.2122C10.0039 53.4411 10.1771 53.611 10.4007 53.7219C10.6244 53.8327 10.8896 53.8882 11.1963 53.8882C11.5065 53.8882 11.7716 53.8327 11.9917 53.7219C12.2154 53.611 12.3867 53.4411 12.5058 53.2122C12.6249 52.9797 12.6844 52.681 12.6844 52.3162V47.128ZM18.967 47.128V54.9398H17.4843V47.128H18.967ZM21.413 47.128V48.2923H15.0654V47.128H21.413ZM28.6318 50.8354V51.2378C28.6318 51.828 28.5525 52.3591 28.3937 52.8312C28.2349 53.2998 28.0095 53.6986 27.7172 54.0277C27.4251 54.3567 27.0769 54.6089 26.6729 54.7841C26.2688 54.9594 25.8196 55.047 25.3254 55.047C24.8384 55.047 24.391 54.9594 23.9834 54.7841C23.5794 54.6089 23.2294 54.3567 22.9336 54.0277C22.6378 53.6986 22.4087 53.2998 22.2463 52.8312C22.084 52.3591 22.0028 51.828 22.0028 51.2378V50.8354C22.0028 50.2417 22.084 49.7105 22.2463 49.2419C22.4087 48.7733 22.636 48.3745 22.9282 48.0454C23.2204 47.7129 23.5685 47.4589 23.9726 47.2836C24.3802 47.1084 24.8276 47.0208 25.3146 47.0208C25.8088 47.0208 26.258 47.1084 26.662 47.2836C27.0661 47.4589 27.4142 47.7129 27.7064 48.0454C28.0023 48.3745 28.2295 48.7733 28.3883 49.2419C28.5507 49.7105 28.6318 50.2417 28.6318 50.8354ZM27.1274 51.2378V50.8246C27.1274 50.399 27.0878 50.0253 27.0084 49.7033C26.929 49.3778 26.8117 49.1042 26.6566 48.8825C26.5015 48.6607 26.3103 48.4944 26.083 48.3835C25.8557 48.2691 25.5996 48.2118 25.3146 48.2118C25.026 48.2118 24.7698 48.2691 24.5462 48.3835C24.3261 48.4944 24.1385 48.6607 23.9834 48.8825C23.8282 49.1042 23.7092 49.3778 23.6263 49.7033C23.5469 50.0253 23.5072 50.399 23.5072 50.8246V51.2378C23.5072 51.6599 23.5469 52.0336 23.6263 52.3591C23.7092 52.6846 23.8282 52.96 23.9834 53.1853C24.1421 53.4071 24.3333 53.5752 24.557 53.6897C24.7806 53.8042 25.0368 53.8614 25.3254 53.8614C25.6141 53.8614 25.8702 53.8042 26.0939 53.6897C26.3175 53.5752 26.5051 53.4071 26.6566 53.1853C26.8117 52.96 26.929 52.6846 27.0084 52.3591C27.0878 52.0336 27.1274 51.6599 27.1274 51.2378ZM31.8299 53.4429L33.3993 47.128H34.2488L34.3029 48.4586L32.6254 54.9398H31.7271L31.8299 53.4429ZM30.8396 47.128L32.1276 53.4214V54.9398H31.1481L29.3623 47.128H30.8396ZM35.9318 53.3946L37.198 47.128H38.6808L36.895 54.9398H35.9156L35.9318 53.3946ZM34.6547 47.128L36.224 53.4644L36.316 54.9398H35.4177L33.7456 48.4532L33.8105 47.128H34.6547ZM42.6527 52.0909H40.6235V50.932H42.6527C42.9847 50.932 43.2534 50.8783 43.4591 50.771C43.6683 50.6601 43.8216 50.5099 43.919 50.3203C44.0164 50.1272 44.0651 49.9072 44.0651 49.6604C44.0651 49.4207 44.0164 49.1972 43.919 48.9897C43.8216 48.7823 43.6683 48.6142 43.4591 48.4854C43.2534 48.3567 42.9847 48.2923 42.6527 48.2923H41.1105V54.9398H39.6223V47.128H42.6527C43.266 47.128 43.7892 47.2371 44.2221 47.4553C44.6586 47.6699 44.9905 47.9686 45.2177 48.3513C45.4487 48.7304 45.5641 49.1632 45.5641 49.6497C45.5641 50.154 45.4487 50.5886 45.2177 50.9534C44.9905 51.3183 44.6586 51.599 44.2221 51.7958C43.7892 51.9925 43.266 52.0909 42.6527 52.0909ZM49.7634 52.0909H47.7341V50.932H49.7634C50.0952 50.932 50.364 50.8783 50.5696 50.771C50.7789 50.6601 50.9322 50.5099 51.0296 50.3203C51.127 50.1272 51.1757 49.9072 51.1757 49.6604C51.1757 49.4207 51.127 49.1972 51.0296 48.9897C50.9322 48.7823 50.7789 48.6142 50.5696 48.4854C50.364 48.3567 50.0952 48.2923 49.7634 48.2923H48.2211V54.9398H46.733V47.128H49.7634C50.3767 47.128 50.8998 47.2371 51.3327 47.4553C51.7692 47.6699 52.1011 47.9686 52.3284 48.3513C52.5592 48.7304 52.6747 49.1632 52.6747 49.6497C52.6747 50.154 52.5592 50.5886 52.3284 50.9534C52.1011 51.3183 51.7692 51.599 51.3327 51.7958C50.8998 51.9925 50.3767 52.0909 49.7634 52.0909Z" fill="white"/>
<path fill-rule="evenodd" clip-rule="evenodd" d="M117.248 27.9052C117.248 28.4008 117.248 28.9407 117.157 29.438C116.884 31.1462 115.382 32.587 113.381 32.587C110.786 32.587 108.92 30.7425 108.92 27.5459C108.92 24.7545 110.33 22.3684 113.424 22.3684C115.382 22.3684 116.884 23.765 117.202 25.5192C117.248 25.8359 117.248 26.1953 117.248 26.5121V27.9052ZM117.248 6.52283V18.2282H117.157C115.973 16.6511 113.608 16.0687 111.014 16.0687C105.28 16.0687 100.092 20.478 100.137 27.861C100.137 35.2422 105.235 39.2955 110.468 39.2955C113.244 39.2955 116.246 38.3486 117.932 35.5589H118.022L118.34 38.7539H126.029C125.94 37.5839 125.849 34.658 125.849 31.7764V6.52283H117.248Z" fill="white"/>
<path fill-rule="evenodd" clip-rule="evenodd" d="M142.354 29.9763C142.354 30.3799 142.354 30.8312 142.263 31.1922C141.901 32.4968 140.535 33.4863 139.214 33.4863C137.624 33.4863 136.756 32.7676 136.756 31.5073C136.756 29.7055 138.576 28.7602 142.354 28.7602V29.9763ZM150.638 25.836C150.638 19.8922 147.359 16.067 139.672 16.067C134.664 16.067 131.34 17.3716 129.885 18.138L131.388 23.4482C132.845 22.6393 135.662 21.6924 138.168 21.6924C141.535 21.6924 142.081 22.6835 142.081 23.4943V23.6305C133.618 23.6305 128.248 26.3742 128.248 32.3163C128.248 35.9183 131.16 39.2955 136.075 39.2955C138.624 39.2955 140.99 38.6655 142.628 36.8636H142.81L143.263 38.754H151C150.775 37.7645 150.638 35.6015 150.638 33.2632V25.836Z" fill="white"/>
<path fill-rule="evenodd" clip-rule="evenodd" d="M0.183801 23.8723C0.183801 20.7198 0.092759 18.1533 0 16.1725H7.1459L7.46543 19.0082H7.64579C8.32945 18.0647 10.2859 15.6327 14.6543 15.6327C17.5659 15.6327 20.024 16.9832 21.0701 19.371H21.1594C22.1626 18.109 23.2551 17.208 24.4833 16.5779C25.7115 15.9478 27.1217 15.6327 28.7158 15.6327C33.6767 15.6327 36.8615 19.0525 36.8615 25.5362V38.3214H28.5801V26.7965C28.5801 23.9166 27.5787 22.3855 25.6221 22.3855C24.1655 22.3855 23.2551 23.3307 22.8909 24.4121C22.7088 24.9503 22.6642 25.6707 22.6642 26.1203V38.3214H14.3811V26.7965C14.3811 23.9166 13.3814 22.3855 11.4232 22.3855C9.69337 22.3855 8.96504 23.69 8.69185 24.3662C8.46514 24.9503 8.46514 25.5362 8.46514 26.0318V38.3214H0.183801V23.8723Z" fill="white"/>
<path fill-rule="evenodd" clip-rule="evenodd" d="M51.5226 32.9633C48.7467 32.9633 47.4721 30.3967 47.4721 27.2477C47.4721 24.3661 48.5646 21.5287 51.5672 21.5287C54.2985 21.5287 55.482 24.1412 55.482 27.2477C55.482 30.9366 54.0254 32.9633 51.5672 32.9633H51.5226ZM51.4315 38.8594C58.6221 38.8594 64.49 34.5404 64.49 26.9769C64.49 20.3144 59.3505 15.6326 51.9332 15.6326C43.3306 15.6326 38.5535 20.6737 38.5535 27.4248C38.5535 34.7192 44.4231 38.8594 51.3869 38.8594H51.4315Z" fill="white"/>
<path fill-rule="evenodd" clip-rule="evenodd" d="M72.6393 16.1726L75.4598 25.761C75.9613 27.4267 76.2792 29.048 76.5521 30.5791H76.7343C77.0072 28.9578 77.2801 27.4727 77.7338 25.761L80.2828 16.1726H89.4751L80.6492 38.3231H71.8199L63.2634 16.1726H72.6393Z" fill="white"/>
<path fill-rule="evenodd" clip-rule="evenodd" d="M101.944 42.712C98.7319 38.5717 96.8201 33.3909 96.8201 27.7707C96.8201 21.5612 98.1341 15.9086 101.975 11.5844L95.8442 8.323C91.567 13.669 89.9406 20.4253 89.9406 27.7707C89.9406 34.5729 92.1287 40.8692 95.8462 46.0075L101.944 42.712Z" fill="white"/>
<path fill-rule="evenodd" clip-rule="evenodd" d="M106.42 4.38037C106.42 6.80218 104.437 8.76245 101.992 8.76245C99.5443 8.76245 97.564 6.80218 97.564 4.38037C97.564 1.96197 99.5443 0 101.992 0C104.437 0 106.42 1.96197 106.42 4.38037Z" fill="white"/>
</g>
<defs>
<clipPath id="clip0_14_1221">
<rect width="151" height="57" fill="white"/>
</clipPath>
</defs>
</svg>
